<svg xmlns="http://www.w3.org/2000/svg" viewBox="0 0 128 128" width="128" height="128">
  <rect width="128" height="128" rx="20" fill="#1268c3"/>
  <g fill="none" stroke="#ffffff" stroke-width="13" stroke-linecap="round" stroke-linejoin="round">
    <!-- left curly brace: tips curl right, cusp points left at the middle -->
    <path d="M42 18 C34 18 30 22 30 34 L30 54 C30 60 28 64 22 64 C28 64 30 68 30 74 L30 94 C30 106 34 110 42 110"/>
    <!-- right curly brace: mirror of the left -->
    <path d="M86 18 C94 18 98 22 98 34 L98 54 C98 60 100 64 106 64 C100 64 98 68 98 74 L98 94 C98 106 94 110 86 110"/>
  </g>
  <!-- L -->
  <path d="M56 36 L56 84 L78 84" fill="none" stroke="#ffffff" stroke-width="16" stroke-linecap="round" stroke-linejoin="round"/>
</svg>
